<svg xmlns="http://www.w3.org/2000/svg" viewBox="0 0 160 44" fill="none">
  <!-- Palm tree left -->
  <g opacity="0.9">
    <!-- trunk left -->
    <path d="M18 38 Q17 30 16 22 Q15.5 18 16 16" stroke="white" stroke-width="1.6" stroke-linecap="round" fill="none"/>
    <!-- leaves left -->
    <path d="M16 16 Q10 10 5 8 Q9 13 12 18" stroke="white" stroke-width="1.4" stroke-linecap="round" fill="none"/>
    <path d="M16 16 Q8 14 4 16 Q9 17 14 19" stroke="white" stroke-width="1.4" stroke-linecap="round" fill="none"/>
    <path d="M16 16 Q14 8 16 4 Q17 9 17 15" stroke="white" stroke-width="1.4" stroke-linecap="round" fill="none"/>
    <path d="M16 16 Q20 8 24 7 Q21 12 18 17" stroke="white" stroke-width="1.4" stroke-linecap="round" fill="none"/>
    <path d="M16 16 Q22 14 26 16 Q21 17 16 19" stroke="white" stroke-width="1.4" stroke-linecap="round" fill="none"/>
  </g>
  <!-- Palm tree right -->
  <g opacity="0.9">
    <!-- trunk right -->
    <path d="M32 38 Q33 30 34 22 Q34.5 18 34 16" stroke="white" stroke-width="1.6" stroke-linecap="round" fill="none"/>
    <!-- leaves right -->
    <path d="M34 16 Q40 10 45 8 Q41 13 38 18" stroke="white" stroke-width="1.4" stroke-linecap="round" fill="none"/>
    <path d="M34 16 Q42 14 46 16 Q41 17 36 19" stroke="white" stroke-width="1.4" stroke-linecap="round" fill="none"/>
    <path d="M34 16 Q36 8 34 4 Q33 9 33 15" stroke="white" stroke-width="1.4" stroke-linecap="round" fill="none"/>
    <path d="M34 16 Q30 8 26 7 Q29 12 32 17" stroke="white" stroke-width="1.4" stroke-linecap="round" fill="none"/>
    <path d="M34 16 Q28 14 24 16 Q29 17 34 19" stroke="white" stroke-width="1.4" stroke-linecap="round" fill="none"/>
  </g>
  <!-- BAZA text -->
  <text x="54" y="30" font-family="Montserrat, sans-serif" font-weight="700" font-size="20" fill="white" letter-spacing="1">BAZA</text>
  <!-- .sale text -->
  <text x="116" y="30" font-family="Montserrat, sans-serif" font-weight="500" font-size="13" fill="rgba(255,255,255,0.65)" letter-spacing="0.5">.sale</text>
</svg>
